<?xml version="1.0" encoding="utf-8"?>
<!-- Generator: Adobe Illustrator 18.1.0, SVG Export Plug-In . SVG Version: 6.00 Build 0)  -->
<!DOCTYPE svg PUBLIC "-//W3C//DTD SVG 1.1//EN" "http://www.w3.org/Graphics/SVG/1.1/DTD/svg11.dtd">
<svg version="1.1"
	 id="svg4460" inkscape:export-ydpi="90" inkscape:export-xdpi="90" inkscape:export-filename="renders/rocket-24.png" sodipodi:docname="rocket-24.svg" inkscape:version="0.48.2 r9819" xmlns:rdf="http://www.w3.org/1999/02/22-rdf-syntax-ns#" xmlns:svg="http://www.w3.org/2000/svg" xmlns:dc="http://purl.org/dc/elements/1.1/" xmlns:inkscape="http://www.inkscape.org/namespaces/inkscape" xmlns:sodipodi="http://sodipodi.sourceforge.net/DTD/sodipodi-0.dtd" xmlns:cc="http://creativecommons.org/ns#"
	 xmlns="http://www.w3.org/2000/svg" xmlns:xlink="http://www.w3.org/1999/xlink" x="0px" y="0px" viewBox="4 -4 24 24"
	 enable-background="new 4 -4 24 24" xml:space="preserve">
<sodipodi:namedview  inkscape:snap-bbox="true" inkscape:window-maximized="0" inkscape:window-y="79" inkscape:window-x="58" inkscape:window-height="948" inkscape:window-width="1920" inkscape:guide-bbox="true" inkscape:pageshadow="2" inkscape:current-layer="layer1" inkscape:document-units="px" inkscape:pageopacity="0.0" inkscape:cx="16.4821" id="base" borderopacity="1.0" bordercolor="#666666" pagecolor="#ffffff" showgrid="true" showguides="false" inkscape:zoom="22.627417" inkscape:cy="9.0233433">
	<inkscape:grid  type="xygrid" snapvisiblegridlinesonly="true" enabled="true" id="grid4468" visible="true" empspacing="5">
		</inkscape:grid>
	<sodipodi:guide  orientation="1,0" position="0,20" id="guide4470"></sodipodi:guide>
	<sodipodi:guide  orientation="0,1" position="4,24" id="guide4472"></sodipodi:guide>
	<sodipodi:guide  orientation="1,0" position="24,13" id="guide4474"></sodipodi:guide>
	<sodipodi:guide  orientation="0,1" position="15,0" id="guide4476"></sodipodi:guide>
	<sodipodi:guide  orientation="1,0" position="23,20" id="guide4478"></sodipodi:guide>
	<sodipodi:guide  orientation="0,1" position="20,23" id="guide4480"></sodipodi:guide>
	<sodipodi:guide  orientation="1,0" position="2,5" id="guide4482"></sodipodi:guide>
	<sodipodi:guide  orientation="0,1" position="7,2" id="guide4484"></sodipodi:guide>
	<sodipodi:guide  orientation="1,0" position="13,5" id="guide4486"></sodipodi:guide>
</sodipodi:namedview>
<g id="layer1" transform="translate(0,-1028.3622)" inkscape:groupmode="layer" inkscape:label="Layer 1">
	
		<path id="path3611" inkscape:connector-curvature="0" sodipodi:nodetypes="ccsccsccssssscccccccccc" inkscape:export-ydpi="180.05" inkscape:export-xdpi="180.05" inkscape:export-filename="/home/aj/Ubuntu One/tmp/rocket-24@2x.png" opacity="0.9" fill="none" stroke="#FFFFFF" stroke-width="2" stroke-linecap="round" stroke-linejoin="round" enable-background="new    " d="
		M25,1028.4h-1c-2,0-4.6,0.6-7.5,3.5c-3,3-4.5,6.5-4.5,6.5c0,1,2,3,3,3c0,0,3.2-1.2,6.2-4.2c3.2-3.2,3.8-5.8,3.8-7.8V1028.4z
		 M19.5,1032.4c0.8,0,1.5,0.7,1.5,1.5s-0.7,1.5-1.5,1.5s-1.5-0.7-1.5-1.5S18.7,1032.4,19.5,1032.4z M10,1034.4l-1,3h2.5l1.8-3H10z
		 M19,1040.1l-3,1.8v2.5l3-1V1040.1z"/>
	
		<path id="path3088" inkscape:connector-curvature="0" sodipodi:nodetypes="ccsccsccssssscccccccccc" inkscape:export-ydpi="180.05" inkscape:export-xdpi="180.05" inkscape:export-filename="/home/aj/Ubuntu One/tmp/rocket-24@2x.png" fill="#444444" d="
		M25,1028.4h-1c-2,0-4.6,0.6-7.5,3.5c-3,3-4.5,6.5-4.5,6.5c0,1,2,3,3,3c0,0,3.2-1.2,6.2-4.2c3.2-3.2,3.8-5.8,3.8-7.8V1028.4z
		 M19.5,1032.4c0.8,0,1.5,0.7,1.5,1.5s-0.7,1.5-1.5,1.5s-1.5-0.7-1.5-1.5S18.7,1032.4,19.5,1032.4z M10,1034.4l-1,3h2.5l1.8-3H10z
		 M19,1040.1l-3,1.8v2.5l3-1V1040.1z"/>
</g>
</svg>
